HIERARCHY
ROOT hip
{
	OFFSET 0.000000 0.000000 0.000000 
	CHANNELS 6 Xposition Yposition Zposition Xrotation Zrotation Yrotation
	JOINT abdomen
	{
		OFFSET 0.000000 3.402643 0.000000 
		CHANNELS 3 Xrotation Zrotation Yrotation
		JOINT chest
		{
			OFFSET 0.000000 8.438565 -0.680529 
			CHANNELS 3 Xrotation Zrotation Yrotation
			JOINT neck
			{
				OFFSET 0.000000 10.207942 -0.272212 
				CHANNELS 3 Xrotation Zrotation Yrotation
				JOINT head
				{
					OFFSET 0.000000 3.130431 0.000000 
					CHANNELS 3 Xrotation Zrotation Yrotation
					End Site
					{
						OFFSET 0.000000 3.130435 0.000000 
					}
				}
			}
			JOINT lCollar
			{
				OFFSET 3.470700 6.669187 -0.816635 
				CHANNELS 3 Yrotation Zrotation Xrotation
				JOINT lShldr
				{
					OFFSET 3.198488 0.000000 0.000000 
					CHANNELS 3 Zrotation Yrotation Xrotation
					JOINT lForeArm
					{
						OFFSET 10.139888 0.000000 0.000000 
						CHANNELS 3 Yrotation Zrotation Xrotation
						JOINT lHand
						{
							OFFSET 8.370511 0.000000 0.000000 
							CHANNELS 3 Zrotation Yrotation Xrotation
							End Site
							{
								OFFSET 4.083176 0.000000 0.000000 
							}
						}
					}
				}
			}
			JOINT rCollar
			{
				OFFSET -3.470700 6.669187 -0.816635 
				CHANNELS 3 Yrotation Zrotation Xrotation
				JOINT rShldr
				{
					OFFSET -3.198488 0.000000 0.000000 
					CHANNELS 3 Zrotation Yrotation Xrotation
					JOINT rForeArm
					{
						OFFSET -10.139888 0.000000 0.000000 
						CHANNELS 3 Yrotation Zrotation Xrotation
						JOINT rHand
						{
							OFFSET -8.370511 0.000000 0.000000 
							CHANNELS 3 Zrotation Yrotation Xrotation
							End Site
							{
								OFFSET -4.083176 0.000000 0.000000 
							}
						}
					}
				}
			}
		}
	}
	JOINT lThigh
	{
		OFFSET 5.308129 -1.633274 1.361059 
		CHANNELS 3 Xrotation Zrotation Yrotation
		JOINT lShin
		{
			OFFSET -2.041588 -20.007561 0.000000 
			CHANNELS 3 Xrotation Zrotation Yrotation
			JOINT lFoot
			{
				OFFSET 0.000000 -19.190928 -1.224953 
				CHANNELS 3 Xrotation Yrotation Zrotation
				End Site
				{
					OFFSET 0.000000 -2.449906 4.627600 
				}
			}
		}
	}
	JOINT rThigh
	{
		OFFSET -5.308129 -1.633274 1.361059 
		CHANNELS 3 Xrotation Zrotation Yrotation
		JOINT rShin
		{
			OFFSET 2.041588 -20.007561 0.000000 
			CHANNELS 3 Xrotation Zrotation Yrotation
			JOINT rFoot
			{
				OFFSET 0.000000 -19.190928 -1.224953 
				CHANNELS 3 Xrotation Yrotation Zrotation
				End Site
				{
					OFFSET 0.000000 -2.449906 4.627600 
				}
			}
		}
	}
}
MOTION
Frames: 11
Frame Time: 0.033333
-1.225523 49.778576 1.218951 1.391193 -1.366977 -1.006272 0.000000 0.000000 0.000000 -3.688817 1.552642 -0.625035 4.856629 1.083964 -0.351500 6.406228 0.009766 -0.126953 -1.220528 10.380912 -2.720859 -5.173727 3.579022 -11.320410 0.474003 -3.928965 16.122198 0.358216 -3.715767 -3.414711 -0.626835 -7.370793 -2.825841 2.566996 -8.337316 -5.380015 -1.004681 3.123121 11.686833 -0.539706 3.127630 -3.442241 0.467086 13.761735 9.153097 14.328356 -2.147535 9.409818 -11.936318 1.350809 -12.626556 -0.576820 -9.497895 -8.321802 14.506848 1.929057 -20.850651 -9.369020 -1.095476 13.216593 
-1.327002 49.778194 1.249779 1.703035 -1.581450 -1.553490 0.000000 0.000000 0.000000 -3.777575 1.865149 -0.546903 4.692472 1.171865 -0.234326 6.542835 0.039062 -0.195312 -1.256373 10.032403 -2.776699 -6.756042 3.745336 -12.921141 0.301905 -2.903071 15.185494 0.992833 -3.834275 -3.457736 -0.684962 -7.328350 -2.914234 4.023066 -7.934495 -7.171097 -0.628177 2.603268 11.271386 -1.093223 3.368144 -3.476160 0.409863 14.021807 9.198404 14.213120 -2.089744 9.783927 -11.958775 1.388393 -12.847438 -0.879429 -9.136628 -7.900979 14.362872 1.843033 -20.419983 -9.427759 -1.100202 13.087358 
-1.504332 49.777569 1.216653 2.494615 -1.571004 -2.295933 0.000000 0.000000 0.000000 -4.124916 1.992141 -0.390728 4.109676 1.210936 -0.078108 7.821881 0.107421 -0.205078 -0.785630 8.883832 -3.143118 -7.940755 3.313145 -14.192214 0.234620 -2.232202 13.252632 1.231811 -4.563610 -3.467342 -0.346232 -6.680591 -3.224529 5.486850 -7.703756 -9.247132 -0.287453 2.238012 8.561098 -1.960423 3.941654 -3.526219 0.154829 14.142870 9.192587 13.639189 -2.080523 10.793908 -11.624352 1.343227 -13.206498 -2.158128 -8.941916 -7.551788 14.855642 1.870818 -20.222214 -9.646322 -1.124023 12.857327 
-1.703705 49.777691 1.237080 2.647761 -1.735993 -2.941061 0.000000 0.000000 0.000000 -4.039484 2.138612 -0.429753 3.969855 1.640618 -0.165948 8.613212 0.029297 -0.136719 -0.496992 8.397909 -3.090652 -10.733030 3.383597 -15.204123 -0.562786 -1.440562 12.854345 1.553586 -5.023612 -3.493829 0.282666 -5.052048 -3.117398 6.502579 -7.536113 -11.049376 -0.124696 1.873397 6.790502 -2.399387 4.727186 -3.557216 0.497492 14.473014 9.474174 13.144515 -2.018326 11.326433 -11.288209 1.384483 -13.554343 -2.566658 -8.545756 -7.243880 15.093940 1.853541 -19.957193 -9.819870 -1.106486 12.623604 
-1.958719 49.780842 1.240126 2.733125 -1.881198 -3.527335 0.000000 0.000000 0.000000 -3.859958 2.441307 -0.517940 3.771160 1.874915 -0.546902 9.559448 0.146480 -0.429686 -0.679904 6.859286 -2.901906 -14.498116 7.769088 -15.936807 -11.235082 -0.696376 12.272049 0.720771 -3.214658 -3.443503 0.644665 -3.817384 -2.945037 8.660807 -7.214560 -12.824924 -0.080633 1.533602 6.291250 -3.257038 6.103291 -3.641992 1.091508 14.825865 9.835704 12.305502 -1.931417 11.587596 -10.896592 1.340832 -13.897539 -2.830361 -8.038809 -6.856551 15.300406 1.795854 -19.747631 -10.050451 -1.127424 12.351489 
-2.290104 49.773151 1.243538 2.865725 -2.192081 -3.938639 0.000000 0.000000 0.000000 -3.691034 2.870833 -0.771983 3.584049 2.040806 -0.820488 10.362329 0.790967 -0.634705 -1.202989 5.561031 -2.717166 -18.938112 11.487865 -16.350912 -19.706144 -0.060335 13.064211 -0.224320 -1.979752 -3.408564 1.113704 -2.029125 -2.783998 12.634912 -13.772377 -14.014627 15.388227 1.070567 6.326650 -2.752901 2.776464 -3.569960 1.433071 15.441188 10.265234 11.815406 -1.832951 11.829399 -10.536650 1.318966 -14.338334 -3.152306 -7.375771 -6.593711 15.618748 1.949649 -19.817289 -10.391188 -1.081100 11.974175 
-2.674987 49.759544 1.269081 3.008906 -2.531460 -4.438316 0.000000 0.000000 0.000000 -3.552676 3.349132 -0.967998 3.418046 2.401849 -1.162725 11.042267 0.888585 -0.800836 -1.834344 4.040296 -2.544399 -23.992395 14.432169 -17.444717 -26.474302 0.617732 14.394047 -2.074328 -1.491407 -3.336020 1.453938 -0.058415 -2.684680 16.362003 -17.886505 -14.753704 25.349319 0.838402 7.116030 -1.490061 0.848174 -3.509019 2.038640 16.087965 10.771521 10.945110 -1.656663 11.911977 -10.060049 1.347600 -14.878353 -3.424735 -6.623042 -6.301616 15.982480 2.126853 -19.422161 -10.941278 -1.106993 11.448516 
-3.137387 49.705177 1.289113 2.975659 -2.723717 -5.064466 0.000000 0.000000 0.000000 -3.361051 3.710081 -1.232945 3.433187 2.596895 -1.387949 11.602516 1.210795 -0.878916 -2.334407 2.675384 -2.334430 -28.976503 16.607687 -16.360279 -31.425676 0.331426 13.203943 -3.541939 -0.490308 -3.325695 1.672258 1.333212 -2.548683 20.904524 -20.554996 -14.584006 32.525841 0.815477 7.717134 -0.663338 -0.353469 -3.482473 3.222034 16.824656 11.639739 9.717387 -1.676836 10.884001 -9.764868 1.320575 -15.278423 -3.905754 -5.965579 -5.961644 17.064785 2.174945 -18.960434 -11.785959 -1.155008 11.058640 
-3.665614 49.665302 1.286540 2.874291 -2.564285 -5.943767 0.000000 0.000000 0.000000 -3.056097 3.905275 -1.281647 3.468166 2.469795 -1.553817 11.848241 1.376693 -1.113429 -2.849704 0.102973 -2.067765 -32.210487 18.179062 -13.557830 -35.006863 -0.511758 12.012093 -6.232247 0.026877 -3.264345 2.065525 2.741105 -2.315988 24.944571 -22.763308 -13.385960 37.996078 0.780070 8.723808 1.063262 -1.246894 -3.460361 4.755481 16.981812 12.352519 7.757286 -1.667662 11.449862 -8.744527 1.202280 -15.807394 -4.481828 -5.604357 -5.696289 18.321665 2.183416 -18.073271 -12.768662 -1.202860 10.516780 
-4.276504 49.644512 1.276412 3.157420 -2.821980 -6.776160 0.000000 0.000000 0.000000 -3.071196 4.315193 -1.360921 3.226584 2.684522 -1.583496 12.543170 2.401726 -1.299733 -3.409745 -1.058648 -2.076808 -36.814983 19.574411 -10.762815 -38.219711 -1.200194 12.775436 -8.638165 0.566343 -3.236468 1.939232 3.898280 -2.358122 29.619915 -23.948378 -10.656966 41.423359 0.674759 10.303786 2.322643 -2.355669 -3.474070 6.327397 17.597214 13.462262 5.115604 -1.537114 11.597009 -7.369791 1.070937 -16.427389 -5.034553 -4.594678 -5.223702 18.852333 2.325237 -17.736786 -13.410481 -1.156266 9.771074 
-4.950422 49.584869 1.288164 3.171248 -2.807972 -7.479861 0.000000 0.000000 0.000000 -2.922090 4.422221 -1.547410 2.872524 2.830712 -1.749771 13.285789 2.899689 -1.261117 -3.807850 -2.509121 -1.940728 -41.198978 20.456516 -8.503726 -41.025673 -1.825615 13.574912 -11.339102 0.813926 -3.200106 2.007539 5.570156 -2.256063 33.219254 -25.311268 -7.134447 43.766861 0.762661 11.230955 2.287046 -2.583058 -3.471516 8.167582 17.824802 14.463924 2.285543 -1.222126 11.807175 -5.894502 0.903633 -17.123241 -5.614556 -3.925283 -5.014013 20.065079 2.469332 -17.170038 -14.414216 -1.190623 9.052876 
